# xmcd
#
# Track frame offsets: 
#        180
#        21225
#        40034
#        67183
#        108317
#        129499
#        146371
#        165104
#        185641
#        208163
#        229318
#        242586
#        255099
#        266975
#
# Disc length: 3829 seconds
#
# Revision: 3
# Processed by: cddbd v1.5.1PL2 Copyright (c) Steve Scherf et al.
# Submitted via: ExactAudioCopy v0.95b4
#
DISCID=c20ef30e
DTITLE=Various Artist - Music for a new world
DYEAR=1998
DGENRE=New Age
TTITLE0=1 - Carlos Heredia - No Quiero Verte
TTITLE1=2 - Astor Piazzolla - La Camorra
TTITLE2=3 - Mongo Santamaria - Cuco Y Olga
TTITLE3=4 - Babatunde Olatunji - Bebi Alolo
TTITLE4=5 - Badi Assad - Num Pagode em Planaltina
TTITLE5=6 - I Ching - Silk Road
TTITLE6=7 - Paquito D'Rivera - Three Venezuelan Waltzes
TTITLE7=8 - The Chinese Music Ensemble of New York - Purple Bamboo
TTITLE8=9 - Romero Lubambo and Raphael Rabello - Lamentos
TTITLE9=10 - Carlos Heredia - Cruzando Fronteras
TTITLE10=11 - Rebecca Pidgeon - Fhear a Bhata
TTITLE11=12 - Astor Piazzolla - Michelangelo
TTITLE12=13 - Ana Caram - Olinda
TTITLE13=14 - I Ching - In That Distant Place
EXTD=Badi Assad, Babatunde Olatunji, I Ching, Carlos Heredia, Mongo \n
EXTD=Santamaria, Ana Caram, Paquito D'Rivera, Astor Piazzolla, Rebecca
EXTD=\nPidgeon, The Chinese Music Ensemble of New York, Romero Lubambo
EXTD=and\nRaphael Rabello\nChesky
EXTT0=
EXTT1=
EXTT2=
EXTT3=
EXTT4=
EXTT5=
EXTT6=
EXTT7=
EXTT8=
EXTT9=
EXTT10=
EXTT11=
EXTT12=
EXTT13=
PLAYORDER=
